<?xml version="1.0" encoding="utf-8"?>
<!-- Generator: Adobe Illustrator 27.7.0, SVG Export Plug-In . SVG Version: 6.00 Build 0)  -->
<svg version="1.1" xmlns="http://www.w3.org/2000/svg" xmlns:xlink="http://www.w3.org/1999/xlink" x="0px" y="0px"
	 viewBox="0 0 300 300" style="enable-background:new 0 0 300 300;" xml:space="preserve">
<style type="text/css">
	.st0{display:none;}
	.st1{display:inline;fill:#FFFFFF;}
	.st2{fill:url(#SVGID_1_);}
	.st3{fill:url(#SVGID_00000009562336998355539900000013889334945320776860_);}
	.st4{fill:url(#SVGID_00000096763148758134316120000012979417615845092497_);}
	.st5{fill:url(#SVGID_00000124882872145960155110000007394525829713097099_);}
	.st6{display:inline;}
	.st7{fill:#3D3DF4;}
	.st8{font-family:'Montserrat-Black';}
	.st9{font-size:51.5721px;}
	.st10{font-family:'Montserrat-Light';}
	.st11{font-family:'BebasNeueRegular';}
	.st12{font-size:18.118px;}
	.st13{letter-spacing:7;}
</style>
<g id="BACKGROUND" class="st0">
	<rect x="-100" y="-100" class="st1" width="500" height="500"/>
</g>
<g id="OBJECTS">
	<g>
		<linearGradient id="SVGID_1_" gradientUnits="userSpaceOnUse" x1="81.1278" y1="122.7653" x2="218.8722" y2="122.7653">
			<stop  offset="0" style="stop-color:#43C5ED"/>
			<stop  offset="0.4183" style="stop-color:#43D4DA"/>
			<stop  offset="1" style="stop-color:#43EDB8"/>
		</linearGradient>
		<path class="st2" d="M81.13,64.51l4.53,118.93c0.16,4.19,3.77,7.41,7.95,7.09l118.43-8.96c3.96-0.3,6.98-3.68,6.83-7.65
			L214.6,62.1c-0.16-4.19-3.77-7.41-7.95-7.09L81.13,64.51"/>
		
			<linearGradient id="SVGID_00000067195057579299686160000007688971369241928066_" gradientUnits="userSpaceOnUse" x1="81.1278" y1="132.961" x2="199.066" y2="132.961">
			<stop  offset="0" style="stop-color:#158CFF"/>
			<stop  offset="0.3225" style="stop-color:#219BFA"/>
			<stop  offset="0.9361" style="stop-color:#3FC1EE"/>
			<stop  offset="1" style="stop-color:#43C5ED"/>
		</linearGradient>
		<polyline style="fill:url(#SVGID_00000067195057579299686160000007688971369241928066_);" points="81.13,64.51 85.95,191.1 
			199.07,201.41 194.24,74.82 81.13,64.51 		"/>
		
			<linearGradient id="SVGID_00000160888557934739940430000003157429957925200780_" gradientUnits="userSpaceOnUse" x1="81.1278" y1="145.1075" x2="179.392" y2="145.1075">
			<stop  offset="0" style="stop-color:#0040F2"/>
			<stop  offset="0.2627" style="stop-color:#0657F6"/>
			<stop  offset="0.7459" style="stop-color:#117DFD"/>
			<stop  offset="1" style="stop-color:#158CFF"/>
		</linearGradient>
		<polyline style="fill:url(#SVGID_00000160888557934739940430000003157429957925200780_);" points="81.13,64.51 85.95,191.1 
			179.39,225.71 174.57,99.11 81.13,64.51 		"/>
		
			<linearGradient id="SVGID_00000124868885826785105410000010547554551602766507_" gradientUnits="userSpaceOnUse" x1="120.1876" y1="245.0163" x2="120.1876" y2="64.507">
			<stop  offset="0" style="stop-color:#0040F2"/>
			<stop  offset="0.181" style="stop-color:#323DF2"/>
			<stop  offset="0.3666" style="stop-color:#5D3BF2"/>
			<stop  offset="0.5464" style="stop-color:#8039F2"/>
			<stop  offset="0.7161" style="stop-color:#9838F2"/>
			<stop  offset="0.8717" style="stop-color:#A737F2"/>
			<stop  offset="1" style="stop-color:#AC37F2"/>
		</linearGradient>
		<path style="fill:url(#SVGID_00000124868885826785105410000010547554551602766507_);" d="M81.13,64.51l4.76,124.73
			c0.05,1.19,0.59,2.31,1.5,3.08l59.97,50.97c4.79,4.07,12.13,0.5,11.89-5.78l-4.08-107.01c-0.08-2.02-1-3.92-2.54-5.23L81.13,64.51
			"/>
	</g>
	<g class="st0">
		<text transform="matrix(1 0 0 1 -50.8193 265.5664)" class="st6"><tspan x="0" y="0" class="st7 st8 st9">Space</tspan><tspan x="168.33" y="0" class="st7 st10 st9">Together</tspan></text>
		<g class="st6">
			<text transform="matrix(1 0 0 1 -26.3071 295.4277)" class="st7 st11 st12 st13">where you are where we are</text>
		</g>
	</g>
</g>
</svg>
